<svg width="108" height="47" viewBox="0 0 108 47" fill="none" xmlns="http://www.w3.org/2000/svg">
<path fill-rule="evenodd" clip-rule="evenodd" d="M1.06631 35.4871L13.1898 23.3636L1.06631 11.2401V2.57421L21.8555 23.3636L1.06631 44.153V35.4871ZM27.2575 7.78781L17.5222 17.5224L0 0V11.6819L11.6817 23.3636L0 35.0455V46.7272L17.5222 29.2041L27.2575 38.9394V27.2575L23.3636 23.3636L27.2575 19.4697V7.78781ZM93.9531 17.3703C93.9531 16.5605 94.5762 16 95.4271 16C96.2787 16 96.9017 16.5605 96.9017 17.3703C96.9017 18.1591 96.2787 18.7203 95.4271 18.7203C94.5762 18.7203 93.9531 18.1591 93.9531 17.3703ZM39.928 27.6195C39.1807 28.325 38.5364 28.7402 37.706 28.7402C36.8544 28.7402 36.2526 28.3462 36.2526 27.4318C36.2526 26.4147 37.1661 25.688 39.928 25.3348V27.6195ZM38.0796 21.8461C39.4506 21.8461 39.9075 22.7598 39.928 23.8397C35.7542 24.2964 33.9263 25.4384 33.9263 27.6195C33.9263 29.4049 35.1726 30.6097 36.9588 30.6097C38.1629 30.6097 39.2011 30.0069 40.1147 29.2385H40.1775L40.3643 30.3601H42.3162V24.3169C42.3162 21.4726 41.0705 19.9148 38.5159 19.9148C36.896 19.9148 35.463 20.5379 34.3423 21.2434L35.2142 22.8429C36.1065 22.303 37.0624 21.8461 38.0796 21.8461ZM45.8648 24.7952L42.833 19.915H45.4081L46.5499 21.8466C46.8412 22.4076 47.1732 23.0096 47.4846 23.5701H47.5672C47.6913 23.2915 47.8254 23.0026 47.9596 22.7136C48.0954 22.4212 48.2312 22.1287 48.3567 21.8466L49.333 19.915H51.8036L48.7931 25.0651L52.0321 30.1115H49.457L48.2116 28.0969C47.8787 27.495 47.5264 26.8718 47.1732 26.2902H47.0899C47.0141 26.4419 46.9369 26.595 46.8589 26.7495C46.6381 27.1873 46.4115 27.6363 46.1969 28.0969L45.117 30.1115H42.625L45.8648 24.7952ZM60.2943 21.0982C59.6091 20.4335 58.6123 19.9148 57.3041 19.9148C54.5839 19.9148 52.1956 21.8666 52.1956 25.272C52.1956 28.6569 54.3344 30.6097 57.1173 30.6097C58.2804 30.6097 59.5048 30.1529 60.4607 29.3013L59.4639 27.785C58.9029 28.2418 58.1972 28.6569 57.3661 28.6569C55.7675 28.6569 54.6458 27.3071 54.6458 25.272C54.6458 23.2165 55.7878 21.8666 57.4289 21.8666C58.0725 21.8666 58.6123 22.1365 59.1525 22.6146L60.2943 21.0982ZM67.7268 24.3585C67.7268 22.7386 67.0417 21.763 65.6501 21.763C64.4462 21.763 63.4078 22.6562 63.1998 24.3585H67.7268ZM65.588 19.9148C68.3499 19.9148 69.8034 21.9082 69.8034 24.7525C69.8034 25.2101 69.7618 25.6252 69.6999 25.8747H63.2203C63.4282 27.7231 64.5914 28.7606 66.2316 28.7606C67.1045 28.7606 67.8508 28.4907 68.5987 28.0135L69.4086 29.5085C68.433 30.1521 67.2079 30.609 65.9202 30.609C63.0962 30.609 60.8948 28.6359 60.8948 25.272C60.8948 21.9498 63.1998 19.9148 65.588 19.9148ZM75.2783 28.803C74.2399 28.803 73.368 28.3667 72.4545 27.6603L71.333 29.1971C72.3296 30.0069 73.8043 30.6097 75.1959 30.6097C77.771 30.6097 79.1616 29.1971 79.1616 27.453C79.1616 25.542 77.6249 24.8774 76.2335 24.3585L76.1062 24.3129C75.0559 23.9373 74.1159 23.6012 74.1159 22.8429C74.1159 22.1993 74.5931 21.7214 75.6111 21.7214C76.421 21.7214 77.1477 22.0746 77.8534 22.5934L78.9544 21.1399C78.1233 20.4963 76.9815 19.9148 75.5694 19.9148C73.2848 19.9148 71.8524 21.1815 71.8524 22.9671C71.8524 24.6701 73.368 25.4384 74.718 25.9368L74.8871 26.0016C75.9097 26.3924 76.8982 26.7701 76.8982 27.5779C76.8982 28.2834 76.3794 28.803 75.2783 28.803ZM80.2848 27.6603C81.1983 28.3667 82.0702 28.803 83.1085 28.803C84.2097 28.803 84.7284 28.2834 84.7284 27.5779C84.7284 26.7701 83.74 26.3924 82.7174 26.0016L82.5481 25.9368C81.1982 25.4384 79.6827 24.6701 79.6827 22.9671C79.6827 21.1815 81.1151 19.9148 83.3997 19.9148C84.8116 19.9148 85.9536 20.4963 86.7847 21.1399L85.6835 22.5934C84.978 22.0746 84.2513 21.7214 83.4412 21.7214C82.4234 21.7214 81.9462 22.1993 81.9462 22.8429C81.9462 23.6012 82.886 23.9373 83.9361 24.3128L84.0636 24.3585C85.4552 24.8774 86.9919 25.542 86.9919 27.453C86.9919 29.1971 85.6011 30.6097 83.0261 30.6097C81.6346 30.6097 80.1599 30.0069 79.1631 29.1971L80.2848 27.6603ZM91.825 28.929C91.825 27.9942 91.1602 27.3091 90.2883 27.3091C89.4164 27.3091 88.7305 27.9942 88.7305 28.929C88.7305 29.8628 89.4164 30.5489 90.2883 30.5489C91.1602 30.5489 91.825 29.8628 91.825 28.929ZM96.3413 19.915H93.9531V30.1115H96.3413V19.915ZM105.549 25.2727C105.549 27.3078 104.635 28.6577 103.14 28.6577C101.645 28.6577 100.752 27.3078 100.752 25.2727C100.752 23.2165 101.645 21.8674 103.14 21.8674C104.635 21.8674 105.549 23.2165 105.549 25.2727ZM108 25.2727C108 21.8674 105.694 19.9148 103.14 19.9148C100.607 19.9148 98.3015 21.8674 98.3015 25.2727C98.3015 28.6577 100.607 30.6097 103.14 30.6097C105.694 30.6097 108 28.6577 108 25.2727Z" fill="white"/>
</svg>
