<?xml version="1.0" encoding="utf-8" ?><svg xmlns="http://www.w3.org/2000/svg" xmlns:xlink="http://www.w3.org/1999/xlink" width="1024" height="1024" viewBox="0 0 1024 1024"><path transform="scale(2 2)" d="M117.481 415.709L117.481 141.332C117.48 135.736 115.267 103.184 119.8 101.553C122.528 100.571 133.352 101.184 136.855 101.186L201.978 101.2C219.581 101.198 227.145 92.164 243.216 87.2784C245.74 87.0951 246.882 88.3712 248.181 90.4105C248.61 95.3237 248.194 100.825 248.192 105.811L248.181 139.098L321.919 139.072C327.99 139.055 335.156 136.939 335.638 144.166C336.101 151.096 335.721 158.274 335.722 165.228L335.713 206.75L371.288 206.739C376.244 206.739 394.686 204.286 395.153 211.027C395.615 217.685 395.161 225.485 395.159 232.296L395.163 415.709L411.338 415.689C413.956 415.683 416.835 415.419 419.421 415.799C423.507 416.4 424.863 420.99 421.812 423.914C418.673 426.921 408.414 425.374 404.324 425.374L270.625 425.371L114.66 425.378C110.669 425.381 93.7476 426.674 90.9879 424.155C88.8262 422.182 88.5965 419.676 90.6971 417.517C93.3745 414.765 97.6432 415.702 101.065 415.705L117.481 415.709ZM238.769 99.5225C231.732 102.772 224.569 105.839 217.413 108.819C217.414 111.799 217.14 138.552 217.413 139.098L238.769 139.098C238.768 135.409 238.891 99.6769 238.769 99.5225ZM126.67 110.525L126.67 415.709L207.289 415.709L207.799 415.559C208.409 414.147 208.026 356.387 208.026 347.708L208.024 110.525L126.67 110.525ZM218.809 148.44C216.121 148.619 217.386 156.652 217.392 159.507L217.413 415.709L248.181 415.709L248.174 379.134C248.173 373.938 247.738 367.022 248.212 362.045C248.845 355.401 260.839 357.751 265.929 357.756C300.836 357.792 295.849 351.633 295.792 385.438L295.792 415.709L326.226 415.709L326.226 148.44L218.809 148.44ZM335.713 216.296L335.713 415.709C340.448 415.708 385.138 415.94 385.601 415.709L385.601 216.296L335.713 216.296ZM257.723 367.467C257.569 372.93 257.718 378.424 257.72 383.891L257.723 415.709L286.241 415.709L286.241 367.467L257.723 367.467Z"/><path transform="scale(2 2)" d="M148.333 150.937C148.753 145.609 146.088 135.369 151.765 132.271C160.963 131.727 158.857 150.622 154.096 153.389C151.633 153.754 150.082 152.497 148.333 150.937Z"/><path transform="scale(2 2)" d="M183.169 153.389C179.913 153.691 177.956 151.68 177.652 148.428C177.145 143.011 175.844 134.498 181.261 132.271C189.358 132.078 186.711 145.479 186.554 150.937C185.576 152.051 184.445 152.684 183.169 153.389Z"/><path transform="scale(2 2)" d="M183.169 191.59C173.612 191.781 176.617 172.88 181.261 171.266C183.688 171.163 184.902 171.914 186.554 173.723C186.75 178.471 188.512 189.225 183.169 191.59Z"/><path transform="scale(2 2)" d="M154.096 191.59C146.679 192.153 145.072 174.79 151.765 171.266C153.586 171.145 155.624 171.344 156.605 173.152C158.438 176.532 159.432 188.331 154.096 191.59Z"/><path transform="scale(2 2)" d="M261.63 184.188C258.961 184.528 242.481 184.404 240.183 183.849C234.594 182.499 236.346 176.835 240.235 174.745C244.353 174.705 259.319 174.115 262.333 175.209C267.446 177.063 265.516 182.417 261.63 184.188Z"/><path transform="scale(2 2)" d="M303.697 184.188C299.487 184.277 284.953 184.77 281.659 184.034C276.645 182.913 276.995 176.877 280.967 174.745C286.273 174.292 304.019 173.492 306.452 177.13C308.363 179.987 306.204 182.692 303.697 184.188Z"/><path transform="scale(2 2)" d="M154.096 228.83C146.793 229.957 145.087 212.201 151.765 209.545C154.281 209.219 155.734 209.936 157.449 211.845C157.567 216.732 159.467 226.131 154.096 228.83Z"/><path transform="scale(2 2)" d="M183.169 228.83C176.055 229.994 175.333 212.669 180.505 209.545C191.104 208.669 186.95 226.56 183.169 228.83Z"/><path transform="scale(2 2)" d="M260.805 221.272L248.743 221.309C231.582 221.38 234.974 212.523 241.817 211.845C246.313 211.844 260.287 210.924 263.467 213.162C267.174 215.771 264.718 220.775 260.805 221.272Z"/><path transform="scale(2 2)" d="M302.551 221.272C298.781 221.262 282.149 221.973 279.895 220.522C275.903 217.95 277.939 212.619 282.776 211.845C287.347 211.827 300.687 211.123 304.088 212.56C309.462 214.83 307.177 220.002 302.551 221.272Z"/><path transform="scale(2 2)" d="M356.654 260.235C354.967 254.93 353.623 245.98 360.171 243.773C367.422 243.817 365.934 254.641 365.476 259.417C364.323 260.924 363.575 261.606 361.788 262.26C359.354 262.35 358.423 261.862 356.654 260.235Z"/><path transform="scale(2 2)" d="M148.333 265.035C147.586 258.716 145.893 247.973 153.087 246.515C160.46 247.223 157.804 263.38 156.678 265.247C155.858 266.608 154.555 267.143 153.087 267.539C151.07 267.506 149.719 266.343 148.333 265.035Z"/><path transform="scale(2 2)" d="M183.169 267.539C181.423 267.664 179.523 267.261 178.558 265.629C177.021 263.029 175.413 249.27 181.261 246.515C183.247 246.498 185.06 246.903 186.006 248.905C187.369 251.79 188.596 264.888 183.169 267.539Z"/><path transform="scale(2 2)" d="M257.723 257.747C253.537 257.767 241.306 258.709 238.124 256.383C232.661 252.391 238.51 248.541 244.139 248.31C248.586 248.317 265.367 245.711 265.455 253.099C265.504 257.286 260.854 257.702 257.723 257.747Z"/><path transform="scale(2 2)" d="M303.697 257.747C300.009 257.92 282.882 258.237 280.286 257.141C276.29 255.455 277.952 249.425 281.726 248.31C285.921 248.172 301.445 247.711 304.55 249.044C309.319 251.091 307.756 256.166 303.697 257.747Z"/><path transform="scale(2 2)" d="M361.788 301.786C352.942 303.022 353.736 286.202 359.256 283.285C369.531 282.58 366.875 299.68 361.788 301.786Z"/><path transform="scale(2 2)" d="M261.63 294.062C259.131 294.386 242.343 294.285 240.024 293.748C234.751 292.527 236.714 286.662 240.235 284.706C243.306 284.5 259.809 284.352 262.212 284.959C267.541 286.306 265.931 292.055 261.63 294.062Z"/><path transform="scale(2 2)" d="M303.697 294.062C299.585 294.113 283.526 294.714 280.535 293.527C276.008 291.73 277.61 286.526 281.726 284.706C285.649 284.606 301.269 284.181 304.173 285.163C309.428 286.94 308.064 292.397 303.697 294.062Z"/><path transform="scale(2 2)" d="M154.096 305.758C152.151 305.897 150.33 305.704 149.126 303.928C147.468 301.481 146.345 288.069 151.765 284.706C153.801 284.86 155.752 285.384 156.774 287.373C158.129 290.01 159.449 303.295 154.096 305.758Z"/><path transform="scale(2 2)" d="M183.169 305.758C175.372 306.013 177.02 293.843 177.892 288.636C178.208 286.75 179.79 285.703 181.261 284.706C183.124 284.895 185.186 285.514 186.039 287.382C187.242 290.018 188.773 303.564 183.169 305.758Z"/><path transform="scale(2 2)" d="M261.63 330.817C256.596 330.914 237.753 332.592 236.713 327.219C236.074 323.924 239.002 321.897 241.817 321.533C246.461 321.515 258.699 320.809 262.522 322.251C267.514 324.133 265.849 329.425 261.63 330.817Z"/><path transform="scale(2 2)" d="M303.697 330.817C300.458 330.985 282.558 331.245 280.55 330.321C275.955 328.208 277.687 322.903 281.726 321.533C285.288 321.41 302.791 320.995 305.116 322.239C308.973 324.302 307.548 329.795 303.697 330.817Z"/><path transform="scale(2 2)" d="M361.788 341.533C358.443 341.443 356.449 340.492 355.925 336.997C355.154 331.858 353.936 323.792 360.171 323.247C362.574 322.729 363.768 323.631 365.476 325.302C365.837 329.718 367.298 339.823 361.788 341.533Z"/><path transform="scale(2 2)" d="M154.096 344.449L153.86 344.487C146.869 345.653 145.01 327.174 151.765 323.247C154.954 323.032 157.123 324.473 157.475 327.895C158.027 333.259 159.256 341.758 154.096 344.449Z"/><path transform="scale(2 2)" d="M183.169 344.449C175.331 345.106 176.989 330.06 178.186 326.1C178.65 324.562 179.916 323.924 181.261 323.247C183.179 323.32 184.97 323.694 185.993 325.55C187.389 328.082 188.732 341.519 183.169 344.449Z"/><path transform="scale(2 2)" d="M154.096 380.904C144.011 382.048 147.388 363.265 151.765 361.513C154.276 361.61 155.773 362.397 157.449 364.255C157.483 368.751 159.502 379.039 154.096 380.904Z"/><path transform="scale(2 2)" d="M183.169 380.904C173.789 381.132 176.578 363.423 181.261 361.513C183.302 361.613 185.513 362.265 186.348 364.358C187.443 367.101 188.384 379.071 183.169 380.904Z"/><path transform="scale(2 2)" d="M361.788 380.904C354.482 382.392 352.326 365.578 359.256 362.284C367.741 361.615 365.799 372.812 365.476 378.41C364.398 379.565 363.19 380.233 361.788 380.904Z"/></svg>