<?xml version="1.0" encoding="utf-8" ?><svg xmlns="http://www.w3.org/2000/svg" xmlns:xlink="http://www.w3.org/1999/xlink" width="1024" height="1024" viewBox="0 0 1024 1024"><path transform="scale(2 2)" d="M345.165 152.065C347.03 147.338 353.902 129.064 358.033 127.247C362.31 127.537 363.446 132.797 365.035 136.107L372.544 152.065C378.295 156.198 396.345 161.617 397.719 166.585C397.293 171.535 377.012 177.331 372.776 181.482C367.798 186.359 364.644 204.157 358.594 205.696C354.143 204.861 346.687 186.057 345.165 181.597C340.316 179.317 335.627 176.693 330.809 174.344C328.035 172.992 317.317 170.077 319.372 165.628C320.169 163.901 342.033 153.261 345.165 152.065ZM358.594 140.146L358.366 140.564C347.728 160.319 355.954 154.839 332.432 166.89C335.927 168.672 347.953 174.127 350.068 176.652C353.604 180.874 355.849 190.436 358.594 193.299C369.023 172.371 364.121 177.417 384.716 166.89C362.62 153.516 370.845 164.643 358.594 140.146Z"/><path transform="scale(2 2)" d="M159.724 234.045C195.835 228.99 219.968 198.363 225.457 163.574C227.496 150.649 224.292 133.431 240.695 129.81C254.257 128.134 265.001 141.419 268.786 152.927C277.093 178.186 268.626 203.42 257.277 225.961L299.371 225.952C306.897 225.952 314.611 225.613 322.119 226.129C345.473 227.733 350.978 253.392 332.432 269.523C341.53 282.554 340.837 297.682 325.028 305.323C336.527 319.392 330.321 331.012 317.992 341.253C328.88 354.306 320.211 374.639 303.273 376.255C298.588 376.702 293.628 376.345 288.913 376.344L225.605 376.339C207.418 376.345 197.438 376.184 179.308 371.684C172.765 369.976 166.324 367.349 159.724 365.988C156.677 383.334 145.338 383.711 131.169 383.732L114.188 383.741C99.9134 383.739 78.8424 386.497 75.1472 366.897C73.9712 360.659 74.5871 351.291 74.5849 344.762L74.5792 259.396C74.5843 236.05 70.7282 218.292 99.9588 218.277L132.194 218.299C144.208 218.314 157.13 218.479 159.724 234.045ZM241.794 140.146C235.82 142.356 237.513 149.733 237.028 154.813C232.563 201.515 206.64 236.89 159.724 244.798L159.724 355.519C185.184 363.772 196.327 366.002 222.547 365.99L281.607 365.994C287.173 365.992 301.358 367.136 306.206 364.571C315.295 359.764 313.937 346.079 303.55 343.682C296.616 342.082 280.481 345.513 276.368 341.253C272.094 333.17 280.466 332.616 285.931 332.669L299.849 332.76C307.868 332.782 316.548 333.578 319.731 324.05C321.796 317.866 318.026 310.907 311.855 309.006C306.157 307.251 283.156 312.116 287.365 301.089C288.818 297.282 294.079 297.689 297.332 297.696L307.861 297.728C314.97 297.749 323.131 298.018 326.59 290.289C329.488 283.814 326.531 276.149 319.938 273.46C312.667 270.495 303.574 273.874 298.077 272.028C292.799 270.255 291.743 261.631 304.37 261.712L314.341 261.787C341.649 261.989 335.38 237.547 321.375 236.37C314.834 235.82 307.968 236.28 301.392 236.282L261.68 236.268C247.648 236.262 237.088 239.431 247.798 221.421C258.894 202.761 265.97 177.971 259.288 156.751C256.99 149.454 250.596 139.59 241.794 140.146ZM94.761 228.579C85.1303 229.463 85.3102 236.709 85.3102 244.425L85.3104 356.505C85.3003 375.536 92.1771 373.398 109.667 373.4L140.117 373.391C146.746 372.749 148.946 368.984 149.37 362.824C149.995 353.733 149.521 343.823 149.523 334.66L149.52 250.308C149.512 227.025 150.469 228.516 124.929 228.568C114.878 228.588 104.81 228.439 94.761 228.579Z"/><path transform="scale(2 2)" d="M394.478 236.277C396.596 232.413 400.238 220.093 403.645 218.296C410.51 217.454 411.433 230.301 415.798 236.277C420.392 239.991 431.299 243.621 433.633 246.414C437.453 250.986 419.783 257.388 415.798 259.699C413.587 263.865 408.964 277.063 406.087 279.058C401.4 279.886 396.424 263.894 394.478 259.699C390.59 256.998 378.107 252.314 376.186 249.807C372.935 245.565 390.199 239.371 394.08 236.568L394.478 236.277ZM405.267 231.198C397.631 242.937 403.226 240.449 388.284 248.264C398.692 253.115 400.414 254.183 404.903 265.237L405.209 265.33L405.267 265.293C411.143 252.605 409.858 254.52 421.733 248.264C406.745 240.343 412.632 244.423 405.267 231.198Z"/><path transform="scale(2 2)" d="M384.716 328.51C386.748 324.41 393.89 306.405 396.951 304.471C402.356 304.528 407.833 322.948 411.904 328.51C415.715 331.067 434.805 339.834 436.172 341.891C438.79 345.83 431.76 347.963 429.386 349.194C423.538 352.229 417.492 355.074 411.904 358.563C409.945 362.801 402.49 382.766 399.723 384.366C394.192 385.228 393.205 377.855 391.559 373.927C389.4 368.772 387.129 363.604 384.716 358.563C380.696 356.017 362.422 347.399 360.625 344.843C357.549 340.468 380.531 330.649 384.716 328.51ZM397.89 316.945C388.317 339.615 392.361 330.66 372.544 343.3L372.95 343.6C377.038 346.589 386.232 350.411 388.894 353.048C392.859 356.973 396.279 369.805 398.493 371.828L398.699 371.684C400.169 367.972 404.811 355.397 407.375 353.152C411.999 349.106 419.451 347.345 424.588 343.3C398.695 331.759 409.409 335.215 397.89 316.945Z"/><path transform="scale(2 2)" d="M134.382 366.578C127.712 367.492 121.556 362.843 120.611 356.177C119.666 349.51 124.287 343.334 130.949 342.358C137.654 341.376 143.88 346.033 144.831 352.743C145.782 359.453 141.097 365.657 134.382 366.578ZM132.11 348.911C130.079 349.124 128.325 350.425 127.531 352.306C126.736 354.187 127.027 356.351 128.289 357.956C129.552 359.561 131.587 360.352 133.602 360.022C136.597 359.532 138.658 356.749 138.254 353.742C137.851 350.734 135.128 348.594 132.11 348.911Z"/></svg>