<?xml version="1.0" encoding="utf-8" ?><svg xmlns="http://www.w3.org/2000/svg" xmlns:xlink="http://www.w3.org/1999/xlink" width="1024" height="1024" viewBox="0 0 1024 1024"><path transform="scale(2 2)" d="M169.778 127.19C190.024 126.772 207.658 115.215 226.318 108.85C237.779 104.94 249.417 103.332 261.414 102.25C283.214 101.289 305.149 105.022 326.845 106.68C337.129 107.465 369.634 107.619 376.942 111.121C393.542 119.076 396.391 136.85 388.707 152.464C403.604 162.518 407.786 178.337 398.776 194.266C414.481 203.514 418.248 221.625 407.691 236.354C422.801 246.498 427.093 266.656 414.7 280.762C408.18 288.184 401.172 289.384 391.84 290.07C363.023 292.191 333.412 291.296 304.981 285.747C298.119 284.408 291.151 281.744 284.708 285.828C271.492 294.203 281.286 305.785 284.837 314.388C297.224 344.399 290.678 388.815 261.414 406.994C253.827 410.503 243.416 408.526 240.022 400.09C238.128 395.381 239.538 388.709 239.669 383.743C240.652 346.596 226.752 315.012 201.354 288.031C190.385 276.378 178.546 265.763 167.948 253.7C159.871 267.046 145.146 263.169 131.058 263.169C122.89 263.169 114.542 263.548 106.403 263.065C85.2355 261.81 89.9653 238.435 89.9634 223.819L89.9636 148.547C89.9585 124.341 87.3627 113.877 114.297 113.923L129.015 113.946C145.899 113.974 162.363 108.99 169.778 127.19ZM265.418 112.332C250.048 113.176 237.732 115.615 223.253 120.987C205.119 127.715 189.946 137.536 169.778 137.455L169.778 239.717C175.042 245.377 179.722 251.558 185.112 257.117C193.439 265.703 202.542 273.471 210.613 282.324C238.038 312.405 251.695 345.466 250.177 386.472C250.054 389.816 247.882 398.601 253.857 398.328C257.982 398.14 262.582 392.755 265.043 389.875C281.432 370.693 284.036 342.956 275.395 319.718C273.965 315.871 271.473 312.662 269.799 308.959C262.815 293.521 272.264 274.757 289.547 273.305C297.743 272.616 306.333 275.437 314.395 276.811C339.77 280.734 362.968 282.008 388.763 279.949C392.162 279.677 395.869 279.632 399.177 278.802C416.524 274.451 414.595 246.594 398.794 244.629C395.702 244.245 392.364 244.51 389.237 244.523L371.804 244.574C368.559 244.584 362.915 245.612 360.518 242.803C358.007 239.861 359.608 234.777 363.549 234.351C371.672 233.473 387.485 233.893 395.806 234.227C408.241 223.16 404.652 203.338 388.796 202.631C381.302 202.297 373.438 202.583 365.941 202.82C362.061 202.943 354.642 204.59 351.565 201.409C339.517 188.953 383.588 192.474 386.571 192.479C390.689 187.631 393.392 183.165 392.901 176.594C391.665 160.03 379.108 159.77 366.864 159.819C363.069 159.834 344.903 160.608 342.111 159.586C336.536 157.546 337.926 149.816 344.804 149.58C355.951 149.197 367.159 149.941 378.307 149.576C381.614 144.127 383.69 139.026 382.16 132.582C378.408 116.777 364 118.897 352.331 118.565C323.334 117.739 293.777 112.234 265.418 112.332ZM105.589 124.233C97.3771 127.006 100.266 141.023 100.27 148.732L100.274 221.753C100.274 228.249 97.5305 249.691 103.871 252.279C106.885 253.51 146.711 252.874 153.893 252.877C162.331 250.41 159.456 234.784 159.449 227.326L159.436 152.966C159.437 146.928 161.86 127.716 156.015 124.851C153.547 123.642 111.835 124.185 105.589 124.233Z"/><path transform="scale(2 2)" d="M145.813 239.234C129.013 239.787 132.437 230.005 139.202 228.885C153.793 227.737 152.612 237.42 145.813 239.234Z"/><path transform="scale(2 2)" d="M125.142 239.234C122.237 239.541 115.663 239.693 112.979 238.913C107.512 237.324 108.047 230.889 112.767 228.885C116.655 228.772 125.896 227.323 128.256 231.567C129.97 234.65 128.054 237.865 125.142 239.234Z"/></svg>